<svg width="758" height="365" viewBox="0 0 758 365" fill="none" xmlns="http://www.w3.org/2000/svg">
<rect x="133" y="150" width="413" height="55" rx="16" fill="#C79D51"/>
<rect x="133" y="150" width="413" height="55" rx="16" fill="white" fill-opacity="0.9"/>
<path d="M737.276 363.618H673.776L654.005 302.35H722.316L737.276 363.618Z" fill="url(#paint0_linear_703_57199)"/>
<path d="M673.777 364.091C673.825 364.091 673.873 364.083 673.921 364.068C674.17 363.988 674.306 363.722 674.226 363.473L654.654 302.823H721.946L736.817 363.73C736.879 363.984 737.135 364.138 737.388 364.077C737.642 364.015 737.797 363.76 737.735 363.506L722.776 302.238C722.724 302.027 722.535 301.878 722.317 301.878H654.005C653.855 301.878 653.713 301.95 653.623 302.072C653.534 302.194 653.509 302.352 653.556 302.495L673.327 363.763C673.391 363.963 673.577 364.091 673.777 364.091Z" fill="black"/>
<path d="M724.525 315.291L661.533 325.208L654.005 302.35H722.316L724.525 315.291Z" fill="black"/>
<path d="M655.477 363.618H605.407L600.595 302.35H660.027L655.477 363.618Z" fill="url(#paint1_linear_703_57199)"/>
<path d="M659.355 315.291L602.015 328.214L600.595 302.35H660.027L659.355 315.291Z" fill="black"/>
<path d="M605.407 364.091C605.419 364.091 605.431 364.09 605.444 364.089C605.704 364.069 605.898 363.842 605.878 363.581L601.106 302.823H659.518L655.006 363.583C654.987 363.843 655.182 364.07 655.442 364.089C655.708 364.111 655.929 363.913 655.948 363.653L660.498 302.386C660.507 302.255 660.462 302.126 660.373 302.029C660.284 301.933 660.158 301.878 660.027 301.878H600.595C600.463 301.878 600.338 301.933 600.248 302.03C600.159 302.126 600.114 302.256 600.124 302.388L604.936 363.655C604.955 363.903 605.163 364.091 605.407 364.091Z" fill="black"/>
<path d="M753.422 177.46L719.005 125.124C709.936 111.332 694.536 103.03 678.03 103.034L609.775 103.047C597.062 103.05 585.403 110.114 579.516 121.382L547.84 182.008C542.036 193.133 546.349 206.857 557.475 212.662C568.6 218.467 582.325 214.153 588.129 203.027L589.093 201.179V315.291H733.848L704.475 185.732L715.453 202.427C722.348 212.912 736.437 215.822 746.921 208.928C757.407 202.033 760.317 187.945 753.422 177.46Z" fill="#1D326D"/>
<path d="M626.43 151.621V103.027H668.052L626.43 151.621Z" fill="white"/>
<path d="M589.093 315.764H733.848C733.991 315.764 734.127 315.699 734.217 315.587C734.306 315.474 734.34 315.327 734.309 315.188L705.511 188.168L715.058 202.687C718.462 207.864 723.678 211.405 729.745 212.658C735.812 213.91 742.004 212.727 747.181 209.323C757.866 202.297 760.843 187.887 753.817 177.2L719.4 124.864C710.216 110.899 694.753 102.562 678.039 102.562C678.035 102.562 678.033 102.562 678.029 102.562L609.774 102.575C596.841 102.578 585.086 109.7 579.097 121.164L547.421 181.789C544.555 187.282 544 193.562 545.858 199.472C547.715 205.383 551.763 210.216 557.256 213.081C568.594 218.996 582.631 214.585 588.548 203.246L588.621 203.106V315.292C588.621 315.553 588.832 315.764 589.093 315.764ZM733.256 314.819H589.566V201.179C589.566 200.961 589.417 200.772 589.206 200.72C588.995 200.668 588.775 200.768 588.674 200.961L587.71 202.809C582.035 213.686 568.569 217.919 557.693 212.243C552.424 209.494 548.541 204.858 546.759 199.189C544.977 193.519 545.51 187.495 548.259 182.226L579.935 121.601C585.76 110.45 597.194 103.522 609.775 103.52L678.029 103.506C678.032 103.506 678.036 103.506 678.039 103.506C694.435 103.506 709.601 111.683 718.61 125.383L753.027 177.719C756.292 182.685 757.429 188.625 756.227 194.444C755.025 200.265 751.628 205.268 746.662 208.533C741.696 211.798 735.757 212.935 729.937 211.732C724.116 210.53 719.113 207.134 715.848 202.167L704.869 185.472C704.743 185.282 704.499 185.207 704.29 185.297C704.08 185.387 703.963 185.614 704.014 185.836L733.256 314.819Z" fill="black"/>
<path d="M588.819 180.329V218.223H632.821L627.79 202.243C627.806 202.247 627.821 202.25 627.836 202.254C628.048 202.306 628.259 202.357 628.472 202.405C628.592 202.431 628.713 202.456 628.834 202.481C630.09 202.743 631.363 202.915 632.646 202.992L632.674 203.047H647.408H654.067V218.528H714.726L702.557 180.329L588.819 180.329Z" fill="black"/>
<path d="M697.091 168.522C697.189 168.522 697.287 168.492 697.371 168.43C697.581 168.275 697.626 167.979 697.471 167.769L689.278 156.671C689.123 156.461 688.828 156.417 688.618 156.572C688.408 156.727 688.363 157.022 688.518 157.232L696.711 168.33C696.803 168.455 696.946 168.522 697.091 168.522Z" fill="black"/>
<path d="M624.428 157.424C624.434 157.424 624.44 157.424 624.447 157.424L651.229 156.387C651.482 156.378 651.683 156.169 651.683 155.915V137.349H672.083C672.312 137.349 672.509 137.185 672.548 136.959L678.495 103.115C678.54 102.859 678.368 102.613 678.111 102.568C677.855 102.525 677.61 102.695 677.564 102.952L671.686 136.404H651.211C650.95 136.404 650.738 136.616 650.738 136.877V155.461L624.41 156.48C624.15 156.49 623.946 156.709 623.957 156.97C623.966 157.225 624.175 157.424 624.428 157.424Z" fill="black"/>
<path d="M651.772 273.073C652.033 273.073 652.244 272.862 652.244 272.601V235.18H701.105V258.662C701.105 258.923 701.316 259.135 701.577 259.135C701.839 259.135 702.05 258.923 702.05 258.662V234.708C702.05 234.447 701.839 234.236 701.577 234.236H651.772C651.511 234.236 651.3 234.447 651.3 234.708V272.601C651.3 272.862 651.511 273.073 651.772 273.073Z" fill="black"/>
<path d="M543.359 119.34L527.48 89.6947C527.48 89.6947 527.05 83.1561 519.884 80.4844C518.223 79.8652 514.694 78.892 511.706 78.1048C508.309 77.2096 505.046 75.8681 501.999 74.1184L498.507 72.1128C496.752 71.105 494.514 71.6602 493.434 73.3717L493.204 73.7372C492.109 75.4715 492.599 77.7625 494.308 78.8969L505.32 86.2089L500.272 90.1651C497.685 92.1927 494.584 93.4598 491.318 93.824L478.153 95.5553C475.965 95.8431 474.325 97.7009 474.311 99.9076L474.309 100.284L467.16 100.513C465.058 100.648 463.434 102.413 463.473 104.519C463.511 106.587 465.142 108.274 467.209 108.38L512.251 110.688L522.787 130.359L543.359 119.34Z" fill="#955B50"/>
<path d="M544.5 150.661L545.855 123.749L530.213 94.6072L509.809 105.381L532.559 150.06L544.5 150.661Z" fill="#955B50"/>
<path d="M544.5 150.661L545.855 123.749L537.38 107.96L513.768 113.154L532.559 150.06L544.5 150.661Z" fill="black"/>
<path d="M544.948 151.156L546.332 123.66L527.941 89.553C527.839 88.6592 526.899 82.5958 520.049 80.0421C518.332 79.4019 514.631 78.387 511.827 77.6481C508.477 76.7652 505.249 75.44 502.235 73.7089L498.742 71.7034C496.761 70.5655 494.254 71.1881 493.035 73.1196L492.804 73.4857C491.583 75.4202 492.14 78.0247 494.046 79.2907L504.514 86.2407L499.981 89.7934C497.461 91.7685 494.447 93.0001 491.266 93.3544L478.091 95.087C475.708 95.4005 473.893 97.4312 473.84 99.8271L467.145 100.041C464.77 100.193 462.957 102.164 463.001 104.527C463.042 106.834 464.88 108.733 467.184 108.852L512.274 111.161L532.283 150.519L544.948 151.156ZM545.376 123.876L544.052 150.166L532.878 149.603L512.869 110.246L512.596 110.232L467.233 107.908C465.423 107.815 463.979 106.323 463.946 104.51C463.911 102.652 465.336 101.103 467.191 100.984L474.779 100.742L474.784 99.9104C474.797 97.9503 476.272 96.2792 478.216 96.0233L491.38 94.2923C494.727 93.9195 497.906 92.6207 500.565 90.537L506.127 86.177L494.57 78.5038C493.088 77.5189 492.654 75.494 493.604 73.9898L493.834 73.6235C494.783 72.1217 496.733 71.6373 498.272 72.5225L501.765 74.5281C504.852 76.3003 508.156 77.6573 511.587 78.5615C515.577 79.6131 518.389 80.4314 519.72 80.9274C526.521 83.463 527.006 89.6633 527.01 89.7258L527.017 89.8286L527.066 89.9189L545.376 123.876Z" fill="black"/>
<path d="M504.626 99.1622L500.815 98.7351C498.393 98.4636 496.101 97.4949 494.219 95.9462L483.911 87.4667C482.428 86.2473 480.241 86.4441 479 87.9086C477.818 89.303 477.904 91.3705 479.196 92.6629L489.768 103.231C490.622 104.085 491.639 104.759 492.758 105.213L498.788 107.659L504.626 99.1622Z" fill="#955B50"/>
<path d="M494.578 97.6902L490.749 97.899C488.315 98.0316 485.895 97.455 483.782 96.239L472.214 89.5802C470.55 88.6226 468.426 89.1783 467.444 90.8278C466.509 92.3983 466.935 94.4234 468.424 95.484L480.597 104.159C481.58 104.86 482.695 105.357 483.874 105.619L490.225 107.035L494.578 97.6902Z" fill="#955B50"/>
<path d="M483.875 106.092C484.091 106.092 484.286 105.943 484.335 105.722C484.392 105.468 484.232 105.216 483.977 105.159C482.853 104.908 481.808 104.442 480.871 103.774L468.698 95.0992C467.42 94.1882 467.047 92.4183 467.851 91.0695C468.695 89.6507 470.548 89.1644 471.979 89.9895L480.841 95.14C481.067 95.2705 481.355 95.1949 481.486 94.9694C481.618 94.7438 481.541 94.4545 481.316 94.3236L472.452 89.1717C470.574 88.09 468.147 88.7257 467.039 90.5859C465.986 92.3539 466.475 94.6747 468.15 95.8684L480.323 104.544C481.363 105.285 482.523 105.802 483.771 106.08C483.806 106.088 483.84 106.092 483.875 106.092Z" fill="black"/>
<path d="M495.16 107.347C495.347 107.347 495.525 107.235 495.599 107.05C495.695 106.807 495.577 106.533 495.334 106.436C492.764 105.414 490.4 103.812 488.498 101.803L479.54 92.3382C478.421 91.2192 478.346 89.4113 479.361 88.214C480.429 86.9538 482.335 86.7821 483.61 87.8316L493.919 96.3111C495.877 97.9217 498.244 98.9223 500.763 99.2047L508.656 99.4944C508.662 99.4948 508.668 99.4948 508.674 99.4948C508.927 99.4948 509.136 99.2946 509.145 99.0396C509.155 98.7791 508.952 98.56 508.691 98.5508L500.832 98.2634C498.531 98.0041 496.336 97.0762 494.519 95.5816L484.211 87.1021C482.538 85.7275 480.039 85.9518 478.64 87.6034C477.31 89.1731 477.407 91.5422 478.862 92.997L487.812 102.453C489.808 104.561 492.288 106.242 494.985 107.314C495.042 107.337 495.101 107.347 495.16 107.347Z" fill="black"/>
<path d="M508.512 88.7715C508.666 88.7715 508.817 88.6964 508.908 88.5576C509.051 88.3393 508.99 88.047 508.771 87.9039L505.414 85.7082C505.197 85.5657 504.904 85.6266 504.76 85.8451C504.617 86.0634 504.679 86.3557 504.897 86.4988L508.254 88.6945C508.334 88.7466 508.424 88.7715 508.512 88.7715Z" fill="black"/>
<path d="M547.568 204.257L504.217 126.433L543.916 104.319L587.267 182.143C593.373 193.106 589.437 206.943 578.474 213.05C567.512 219.157 553.675 215.22 547.568 204.257Z" fill="#1D326D"/>
<path d="M567.457 216.39C571.274 216.39 575.14 215.448 578.705 213.463C584.117 210.448 588.031 205.506 589.726 199.547C591.422 193.588 590.695 187.326 587.681 181.914L544.329 104.089C544.202 103.861 543.913 103.78 543.687 103.906L503.988 126.02C503.76 126.148 503.678 126.435 503.805 126.663L547.156 204.487C551.394 212.096 559.31 216.39 567.457 216.39ZM543.734 104.962L586.855 182.373C589.747 187.565 590.444 193.572 588.818 199.288C587.192 205.005 583.437 209.745 578.245 212.637C567.528 218.608 553.951 214.745 547.981 204.028L504.86 126.616L543.734 104.962Z" fill="black"/>
<path d="M597.777 161.718H607.021C611.186 161.718 615.297 162.664 619.042 164.485L636.883 173.158H597.777C594.685 173.158 592.178 170.651 592.178 167.558V167.317C592.178 164.225 594.685 161.718 597.777 161.718Z" fill="#955B50"/>
<path d="M597.777 173.63H638.935L619.249 164.06C615.461 162.219 611.233 161.245 607.021 161.245H597.777C594.429 161.245 591.705 163.969 591.705 167.317V167.558C591.705 170.906 594.429 173.63 597.777 173.63ZM634.831 172.685H597.777C594.95 172.685 592.65 170.385 592.65 167.558V167.317C592.65 164.49 594.95 162.19 597.777 162.19H607.021C611.091 162.19 615.176 163.131 618.836 164.909L634.831 172.685Z" fill="black"/>
<path d="M624.428 213.188H564.289L542.259 143.198H602.397L624.428 213.188Z" fill="url(#paint2_linear_703_57199)"/>
<path d="M563.943 213.66H625.073L602.744 142.726H541.615L563.943 213.66ZM623.785 212.715H564.636L542.903 143.67H602.051L623.785 212.715Z" fill="black"/>
<path d="M593.669 148.532L590 136.877H549.417L553.086 148.532H593.669Z" fill="white"/>
<path d="M552.739 149.005H594.313L590.347 136.405H548.773L552.739 149.005ZM593.025 148.06H553.431L550.061 137.349H589.653L593.025 148.06Z" fill="black"/>
<path d="M601.421 165.479L590.186 161.13C588.152 160.343 585.962 161.843 585.962 164.024V164.327C585.962 165.609 586.75 166.759 587.945 167.222L598.255 171.213C599.459 171.679 600.739 171.918 602.031 171.918H613.875V165.478H601.421V165.479Z" fill="#955B50"/>
<path d="M596.417 177.373L587.568 173.948C585.534 173.161 583.344 174.662 583.344 176.843V177.146C583.344 178.428 584.132 179.578 585.327 180.04L595.637 184.032C596.841 184.498 598.121 184.737 599.413 184.737H620.314V178.297H601.362C599.671 178.297 597.994 177.984 596.417 177.373Z" fill="#955B50"/>
<path d="M598.154 171.159L586.385 166.607C584.334 165.814 582.124 167.328 582.124 169.528V169.772C582.124 171.066 582.92 172.227 584.126 172.693L596.469 177.467C597.929 178.032 599.482 178.322 601.048 178.322H620.315V171.882H602.027C600.702 171.882 599.389 171.637 598.154 171.159Z" fill="#955B50"/>
<path d="M599.419 184.72C598.11 184.72 596.812 184.478 595.592 184.006L589.642 181.703C587.612 180.917 585.425 182.415 585.425 184.593V184.907C585.425 186.187 586.212 187.335 587.405 187.797L594.812 190.665C595.658 190.992 596.558 191.161 597.467 191.161H620.314V184.72H599.419Z" fill="#955B50"/>
<path d="M620.904 183.062L600.158 175.033V189.98L616.283 196.223C619.337 197.405 622.584 198.012 625.86 198.012H633.478V183.065L620.904 183.062Z" fill="#955B50"/>
<path d="M614.487 165.46H607.305L624.282 198.012H635.141V172.358L626.069 168.063C622.449 166.349 618.493 165.46 614.487 165.46Z" fill="#955B50"/>
<path d="M658.301 198.012H630.462V172.358H658.301V198.012Z" fill="#955B50"/>
<path d="M639.016 198.012H658.301V172.358H641.052L639.016 198.012Z" fill="black"/>
<path d="M601.048 178.794H612.993C613.254 178.794 613.465 178.583 613.465 178.322C613.465 178.061 613.254 177.849 612.993 177.849H601.048C599.534 177.849 598.051 177.572 596.639 177.026L584.296 172.253C583.28 171.859 582.597 170.862 582.597 169.772V169.528C582.597 168.637 583.018 167.838 583.752 167.335C584.487 166.831 585.384 166.726 586.215 167.048L597.983 171.6C599.278 172.1 600.639 172.354 602.026 172.354H612.993C613.254 172.354 613.466 172.143 613.466 171.882C613.466 171.621 613.254 171.409 612.993 171.409H602.026C600.756 171.409 599.51 171.177 598.324 170.718L586.555 166.166C585.447 165.737 584.199 165.882 583.218 166.555C582.237 167.227 581.652 168.339 581.652 169.528V169.772C581.652 171.25 582.578 172.6 583.955 173.133L596.298 177.907C597.819 178.495 599.417 178.794 601.048 178.794Z" fill="black"/>
<path d="M597.467 191.633H612.993C613.254 191.633 613.466 191.422 613.466 191.161C613.466 190.9 613.254 190.688 612.993 190.688H597.467C596.614 190.688 595.778 190.532 594.982 190.224L587.576 187.357C586.572 186.968 585.898 185.983 585.898 184.907V184.593C585.898 183.713 586.314 182.924 587.039 182.427C587.765 181.929 588.652 181.826 589.472 182.144L595.421 184.446C596.701 184.942 598.046 185.193 599.419 185.193H612.993C613.254 185.193 613.466 184.982 613.466 184.721C613.466 184.459 613.254 184.248 612.993 184.248H599.419C598.163 184.248 596.933 184.019 595.762 183.565L589.813 181.263C588.713 180.838 587.478 180.982 586.505 181.647C585.533 182.313 584.953 183.414 584.953 184.593V184.908C584.953 186.371 585.87 187.709 587.234 188.238L594.641 191.105C595.546 191.455 596.497 191.633 597.467 191.633Z" fill="black"/>
<path d="M623.998 198.484H658.773V171.886L635.25 171.885L621.431 165.121C621.195 165.006 620.914 165.103 620.799 165.337C620.684 165.572 620.781 165.854 621.015 165.969L635.031 172.83L657.829 172.83V197.54H624.567L624.546 197.502L624.282 197.486C621.584 197.322 618.95 196.749 616.453 195.782L603.296 190.689H597.466C596.613 190.689 595.777 190.533 594.982 190.225L587.575 187.356C586.572 186.968 585.897 185.984 585.897 184.907V184.593C585.897 183.734 586.298 182.956 586.996 182.459C587.696 181.96 588.562 181.834 589.376 182.114L589.701 181.227L585.497 179.599C584.492 179.21 583.816 178.224 583.816 177.146V176.843C583.816 176.059 584.144 175.349 584.738 174.844C585.332 174.341 586.105 174.124 586.866 174.248L591.385 174.994L584.296 172.253C583.28 171.859 582.597 170.863 582.597 169.772V169.528C582.597 168.637 583.018 167.838 583.753 167.334C584.487 166.831 585.385 166.726 586.215 167.048L587.646 167.602L588.008 166.729C587.051 166.308 586.434 165.365 586.434 164.328V164.025C586.434 163.143 586.851 162.352 587.578 161.854C588.305 161.356 589.194 161.251 590.015 161.57L601.333 165.951H608.087L608.078 165.932H612.993C613.254 165.932 613.465 165.721 613.465 165.46C613.465 165.199 613.254 164.988 612.993 164.988H606.532L606.542 165.006H601.509L590.356 160.689C589.255 160.263 588.017 160.407 587.044 161.074C586.07 161.742 585.489 162.844 585.489 164.024V164.327C585.489 164.915 585.635 165.48 585.898 165.981C584.974 165.813 584.008 166.013 583.218 166.555C582.237 167.227 581.652 168.338 581.652 169.527V169.772C581.652 171.249 582.578 172.6 583.955 173.133L585.046 173.555C584.717 173.696 584.407 173.886 584.127 174.124C583.329 174.801 582.872 175.791 582.872 176.842V177.145C582.872 178.611 583.79 179.951 585.156 180.48L587.206 181.273C586.943 181.379 586.688 181.518 586.448 181.689C585.498 182.367 584.953 183.425 584.953 184.592V184.907C584.953 186.371 585.87 187.709 587.234 188.237L594.641 191.105C595.546 191.455 596.497 191.633 597.467 191.633H603.12L616.112 196.663C618.618 197.633 621.257 198.221 623.96 198.411L623.998 198.484Z" fill="black"/>
<path d="M734.758 213.492H645.675V168.05H734.758C747.307 168.05 757.48 178.222 757.48 190.771C757.48 203.32 747.307 213.492 734.758 213.492Z" fill="#1D326D"/>
<path d="M712.867 213.965H734.758C747.548 213.965 757.952 203.56 757.952 190.771C757.952 185.906 756.462 181.248 753.643 177.302C753.491 177.09 753.196 177.041 752.984 177.193C752.772 177.344 752.722 177.639 752.874 177.851C755.578 181.636 757.007 186.103 757.007 190.771C757.007 203.039 747.026 213.02 734.758 213.02H712.867C712.606 213.02 712.395 213.231 712.395 213.492C712.395 213.753 712.606 213.965 712.867 213.965Z" fill="black"/>
<path d="M645.675 213.965H712.867C713.128 213.965 713.339 213.754 713.339 213.492C713.339 213.231 713.128 213.02 712.867 213.02H646.147V168.522H726.228C726.489 168.522 726.7 168.311 726.7 168.05C726.7 167.789 726.489 167.577 726.228 167.577H645.675C645.413 167.577 645.202 167.788 645.202 168.05V213.492C645.202 213.753 645.413 213.965 645.675 213.965Z" fill="black"/>
<path d="M753.423 178.282C753.511 178.282 753.601 178.257 753.68 178.205C753.899 178.062 753.96 177.769 753.817 177.551L719.4 124.865C710.216 110.899 694.753 102.561 678.039 102.561C677.773 102.573 677.557 102.769 677.557 103.034C677.557 103.295 677.769 103.506 678.029 103.506C678.032 103.506 678.036 103.506 678.039 103.506C694.435 103.506 709.601 111.684 718.61 125.383L753.027 178.068C753.117 178.207 753.269 178.282 753.423 178.282Z" fill="black"/>
<path d="M652.747 103.06L652.974 73.9553L637.833 73.8372L637.606 122.281L652.747 103.06Z" fill="#955B50"/>
<path d="M652.801 93.2813C647.057 87.5371 647.057 78.224 652.801 72.4798C658.545 66.7356 667.858 66.7356 673.603 72.4798C679.347 78.224 679.347 87.5371 673.603 93.2813C667.858 99.0255 658.545 99.0255 652.801 93.2813Z" fill="black"/>
<path d="M655.477 76.149C648.532 76.149 642.902 70.5192 642.902 63.5745C642.902 56.6298 648.532 51 655.477 51C662.422 51 668.052 56.6298 668.052 63.5745C668.052 70.5192 662.422 76.149 655.477 76.149Z" fill="black"/>
<path d="M672.082 75.6013C666.716 75.6013 662.366 71.251 662.366 65.8846C662.366 60.5182 666.716 56.1678 672.082 56.1678C677.449 56.1678 681.799 60.5182 681.799 65.8846C681.799 71.251 677.449 75.6013 672.082 75.6013Z" fill="black"/>
<path d="M648.388 88.3299C652.495 84.3943 652.974 73.9554 652.974 73.9554L637.833 73.8374L637.748 91.7499C637.748 91.7499 643.419 93.0917 648.388 88.3299Z" fill="black"/>
<path d="M639.46 88.3312C632.195 88.2745 626.356 81.778 626.418 73.8208C626.48 65.8637 632.42 59.4591 639.685 59.5157C646.95 59.5724 652.79 66.0689 652.727 74.0261C652.665 81.9832 646.725 88.3878 639.46 88.3312Z" fill="#955B50"/>
<path d="M642.519 82.0803C641.56 82.9449 640.33 83.5246 638.945 83.6542C635.859 83.9435 633.095 81.9193 632.352 79.0066L642.519 82.0803Z" fill="white"/>
<path d="M641.067 89.2315C641.785 89.2315 642.508 89.1761 643.212 88.9426C643.459 88.8604 643.594 88.593 643.512 88.3458C643.429 88.0981 643.162 87.9653 642.915 88.046C642.05 88.3329 641.115 88.3001 640.123 88.2647C639.826 88.2542 639.527 88.2434 639.225 88.2411C635.936 88.2157 632.832 86.7096 630.484 84.0005C628.143 81.2979 626.869 77.7807 626.898 74.0967C626.926 70.4393 628.252 67.013 630.63 64.4492C632.975 61.9205 636.068 60.5311 639.346 60.5311C639.377 60.5311 639.407 60.5311 639.437 60.5315C645.84 60.5813 651.116 65.8934 651.71 72.888C651.732 73.1477 651.955 73.3442 652.221 73.3183C652.48 73.2962 652.673 73.0678 652.651 72.8077C652.016 65.3244 646.338 59.6407 639.444 59.5868C635.864 59.5351 632.486 61.0573 629.937 63.8065C627.398 66.5436 625.983 70.1955 625.953 74.0892C625.923 78.003 627.278 81.7426 629.77 84.6191C632.298 87.5361 635.653 89.1581 639.217 89.1858C639.51 89.1881 639.801 89.1982 640.089 89.2087C640.413 89.2199 640.74 89.2315 641.067 89.2315Z" fill="black"/>
<path d="M639.055 68.5261L626.473 74.6C626.45 74.2328 626.427 73.8652 626.43 73.4909C626.492 65.5728 632.403 59.1995 639.632 59.2559C646.862 59.3122 653.134 66.0973 653.072 74.0154C653.068 74.5521 653.032 75.0803 652.976 75.6014L639.055 68.5261Z" fill="black"/>
<rect x="133" width="448" height="55" rx="16" fill="#C79D51"/>
<rect x="133" width="448" height="55" rx="16" fill="white" fill-opacity="0.9"/>
<rect y="72" width="448" height="55" rx="16" fill="#C79D51"/>
<rect y="72" width="448" height="55" rx="16" fill="white" fill-opacity="0.9"/>
<defs>
<linearGradient id="paint0_linear_703_57199" x1="619.972" y1="395.809" x2="749.055" y2="381.698" gradientUnits="userSpaceOnUse">
<stop stop-color="#C79D51"/>
<stop offset="1" stop-color="#FCDCA1"/>
</linearGradient>
<linearGradient id="paint1_linear_703_57199" x1="576.306" y1="395.809" x2="668.97" y2="388.58" gradientUnits="userSpaceOnUse">
<stop stop-color="#C79D51"/>
<stop offset="1" stop-color="#FCDCA1"/>
</linearGradient>
<linearGradient id="paint2_linear_703_57199" x1="508.676" y1="249.962" x2="636.434" y2="237.898" gradientUnits="userSpaceOnUse">
<stop stop-color="#C79D51"/>
<stop offset="1" stop-color="#FCDCA1"/>
</linearGradient>
</defs>
</svg>
